<?xml version="1.0" encoding="UTF-8" standalone="no"?>
<!DOCTYPE svg PUBLIC "-//W3C//DTD SVG 1.1//EN" "http://www.w3.org/Graphics/SVG/1.1/DTD/svg11.dtd">
<svg width="100%" height="100%" viewBox="0 0 20 17" version="1.1" xmlns="http://www.w3.org/2000/svg" xmlns:xlink="http://www.w3.org/1999/xlink" xml:space="preserve" style="fill-rule:evenodd;clip-rule:evenodd;stroke-linejoin:round;stroke-miterlimit:1.41421;">
    <path id="path5" d="M19,2.7C18.3,3 17.6,3.2 16.9,3.3C17.7,2.8 18.2,2.1 18.5,1.3C17.8,1.7 17,2 16.1,2.1C14.7,0.6 12.3,0.6 10.9,2C10,2.9 9.6,4.2 9.9,5.5C6.9,5.4 4.2,3.9 2.3,1.6C1.3,3.3 1.8,5.4 3.5,6.5C2.9,6.5 2.3,6.3 1.8,6C1.8,7.8 3.1,9.3 4.8,9.6C4.2,9.9 3.6,9.9 3,9.8C3.5,11.3 4.9,12.3 6.4,12.4C5.1,13.4 3.5,14 1.8,14C1.5,14 1.2,14 0.9,13.9C2.6,15 4.6,15.6 6.6,15.6C12.4,15.6 17.1,11 17.1,5.2L17.1,5.1C17.1,4.9 17.1,4.8 17.1,4.6C17.9,4 18.5,3.4 19,2.7Z" style="fill:rgb(242,108,109);fill-rule:nonzero;"/>
</svg>
