<?xml version="1.0" encoding="UTF-8" standalone="no"?>
<!DOCTYPE svg PUBLIC "-//W3C//DTD SVG 1.1//EN" "http://www.w3.org/Graphics/SVG/1.1/DTD/svg11.dtd">
<svg width="100%" height="100%" viewBox="0 0 64 64" version="1.1" xmlns="http://www.w3.org/2000/svg" xmlns:xlink="http://www.w3.org/1999/xlink" xml:space="preserve" style="fill-rule:evenodd;clip-rule:evenodd;stroke-linejoin:round;stroke-miterlimit:1.41421;">
    <g transform="matrix(0.0575512,0,0,0.0575512,-29.6276,-26.9899)">
        <path d="M1565.49,468.968C1599.38,468.968 1626.86,496.443 1626.86,530.347L1626.86,1519.65C1626.86,1553.55 1599.38,1581.03 1565.49,1581.03L1282.1,1581.03L1282.1,1150.38L1426.66,1150.38L1448.3,982.551L1282.1,982.551L1282.1,875.397C1282.1,826.805 1295.59,793.693 1365.28,793.693L1454.15,793.651L1454.15,643.543C1438.78,641.501 1386.02,636.93 1324.65,636.93C1196.51,636.93 1108.79,715.143 1108.79,858.78L1108.79,982.551L963.869,982.551L963.869,1150.38L1108.79,1150.38L1108.79,1581.03L576.18,1581.03C542.276,1581.03 514.805,1553.55 514.805,1519.65L514.805,530.347C514.805,496.443 542.276,468.968 576.18,468.968L1565.49,468.968Z" style="fill:rgb(242,108,109);"/>
    </g>
</svg>
