<?xml version="1.0" encoding="UTF-8" standalone="no"?>
<!DOCTYPE svg PUBLIC "-//W3C//DTD SVG 1.1//EN" "http://www.w3.org/Graphics/SVG/1.1/DTD/svg11.dtd">
<svg width="100%" height="100%" viewBox="0 0 63 42" version="1.1" xmlns="http://www.w3.org/2000/svg" xmlns:xlink="http://www.w3.org/1999/xlink" xml:space="preserve" style="fill-rule:evenodd;clip-rule:evenodd;stroke-linejoin:round;stroke-miterlimit:1.41421;">
    <path d="M61,2L61,40L2,40L2,2L61,2M62,0L1,0C0.4,0 0,0.4 0,1L0,41C0,41.6 0.4,42 1,42L62,42C62.6,42 63,41.6 63,41L63,1C63,0.4 62.6,0 62,0Z" style="fill:rgb(242,108,109);fill-rule:nonzero;"/>
    <path d="M31.5,20.9C31.3,20.9 31.2,20.9 31,20.8L5,5.8C4.5,5.5 4.4,4.9 4.6,4.4C4.9,4 5.5,3.8 6,4.1L31.5,18.8L57,4.1C57.5,3.8 58.1,4 58.4,4.5C58.7,5 58.5,5.6 58,5.9L32,20.9C31.8,20.9 31.7,20.9 31.5,20.9Z" style="fill:rgb(242,108,109);fill-rule:nonzero;"/>
</svg>
