<?xml version="1.0" standalone="no"?>
<!DOCTYPE svg PUBLIC "-//W3C//DTD SVG 20010904//EN"
 "http://www.w3.org/TR/2001/REC-SVG-20010904/DTD/svg10.dtd">
<svg version="1.0" xmlns="http://www.w3.org/2000/svg"
 width="16.000000pt" height="16.000000pt" viewBox="0 0 16.000000 16.000000"
 preserveAspectRatio="xMidYMid meet">
<metadata>
Created by potrace 1.11, written by Peter Selinger 2001-2013
</metadata>
<g transform="translate(0.000000,16.000000) scale(0.004000,-0.004000)"
fill="#000000" stroke="none">
<path d="M1751 3553 c-24 -8 -64 -35 -87 -59 -72 -71 -76 -98 -72 -481 3 -314
4 -330 25 -368 46 -86 126 -136 217 -137 108 -1 194 50 237 140 22 43 24 63
27 245 l4 197 -141 0 -141 0 0 -65 0 -65 60 0 60 0 0 -125 c0 -123 -1 -126
-26 -150 -37 -34 -102 -34 -141 -1 l-28 24 0 325 0 325 24 26 c31 33 70 41
114 22 44 -18 57 -41 57 -100 l0 -46 81 0 81 0 -7 63 c-12 108 -55 176 -138
218 -55 28 -148 34 -206 12z"/>
<path d="M2230 3035 l0 -525 75 0 75 0 0 235 0 235 90 0 90 0 0 -235 0 -235
75 0 75 0 0 525 0 525 -75 0 -75 0 0 -225 0 -225 -90 0 -90 0 0 225 0 225 -75
0 -75 0 0 -525z"/>
<path d="M2780 3490 l0 -70 85 0 85 0 0 -455 0 -455 75 0 75 0 0 455 0 455 90
0 90 0 0 70 0 70 -250 0 -250 0 0 -70z"/>
<path d="M1360 3471 l-55 -17 0 -469 0 -470 75 0 75 0 3 488 2 487 -22 -1
c-13 -1 -48 -9 -78 -18z"/>
<path d="M870 3340 c-14 -5 -44 -14 -67 -20 l-43 -11 0 -400 0 -399 223 2 222
3 3 73 3 72 -151 0 -150 0 0 345 c0 190 -3 345 -7 344 -5 0 -19 -4 -33 -9z"/>
<path d="M1535 2082 c-68 -28 -102 -60 -132 -120 l-28 -57 0 -340 c0 -336 0
-341 23 -387 45 -91 130 -141 238 -139 66 0 110 19 162 66 74 66 77 83 77 470
l0 340 -25 49 c-58 113 -200 166 -315 118z m164 -167 l26 -25 3 -283 c4 -324
1 -360 -35 -393 -36 -33 -100 -33 -137 1 l-26 24 0 321 c0 200 4 329 10 340
29 53 113 61 159 15z"/>
<path d="M760 1564 l0 -527 143 6 c163 6 204 16 253 59 62 55 77 97 82 234 4
105 2 127 -16 166 -11 25 -33 56 -50 68 l-30 22 37 34 c51 46 64 91 59 206 -3
80 -8 101 -31 140 -55 94 -117 118 -308 118 l-139 0 0 -526z m280 368 c39 -19
59 -61 59 -127 0 -98 -46 -145 -141 -145 l-48 0 0 145 0 145 48 0 c26 0 63 -8
82 -18z m-4 -417 c50 -21 67 -68 62 -170 -6 -118 -31 -145 -133 -145 l-55 0 0
165 0 165 45 0 c25 0 61 -7 81 -15z"/>
<path d="M1971 2038 c12 -29 56 -141 98 -249 l77 -196 -103 -268 c-57 -147
-102 -269 -100 -271 2 -2 41 7 88 19 l84 23 52 144 c29 79 54 144 56 146 1 2
23 -51 47 -116 24 -66 47 -120 50 -120 25 2 135 40 133 46 -1 5 -36 96 -78
203 l-76 193 100 250 100 249 -82 -3 -82 -3 -52 -140 c-28 -77 -54 -144 -56
-150 -2 -5 -28 58 -59 140 l-55 150 -81 3 -82 3 21 -53z"/>
<path d="M1850 697 c-613 -165 -1117 -301 -1119 -303 -9 -7 22 -105 33 -101 6
2 511 138 1121 302 611 164 1114 301 1119 306 12 11 -13 99 -28 98 -6 -1 -513
-136 -1126 -302z"/>
</g>
</svg>
